<svg width="34" height="60" viewBox="0 0 34 60" fill="none" xmlns="http://www.w3.org/2000/svg">
<path d="M31.3747 35.5004C27.5749 30.6028 27.5018 25.0154 29.4868 20.0817C25.2802 24.2016 22.9115 29.2956 24.5656 34.4393C24.7755 35.0935 24.9101 35.7344 25.0086 36.3887L25.0462 37.1777L24.8115 37.2641L23.8126 34.9816C22.3934 31.0969 22.1842 27.0011 23.5781 22.7946C26.3535 14.5553 22.7274 6.4876 16.1151 0C19.1621 7.84442 18.8786 16.7635 12.7109 24.6582C11.5263 26.1632 10.5522 27.6929 9.77526 29.2588L9.30588 30.2944L9.34342 30.0236C10.589 24.7199 7.87529 19.9087 3.36019 16.2828C5.70381 20.9819 6.06186 26.558 2.65694 31.8617C-0.193005 37.3378 -0.921042 44.1352 1.31219 49.1804C4.80364 56.4705 9.44222 59.8255 15.746 59.9978C16.6583 60.0099 17.5962 59.9737 18.5589 59.8498C23.7028 59.2947 30.13 56.7796 32.202 50.8216C34.2494 45.7132 35.2241 40.4824 31.3747 35.5004Z" fill="#808080"/>
</svg>
