<svg width="41" height="60" viewBox="0 0 41 60" fill="none" xmlns="http://www.w3.org/2000/svg">
<path d="M20.461 0C9.16009 0 0 8.95437 0 19.9996C0 23.5518 0.976256 26.8756 2.63761 29.7655C2.91378 30.2457 3.20281 30.7166 3.51699 31.1717L20.4621 60L37.4071 31.1717C37.6678 30.794 37.8937 30.3949 38.1265 29.9999L38.2865 29.7655C39.9462 26.8756 40.9241 23.5524 40.9241 19.9996C40.9241 8.95357 31.7627 0 20.4632 0H20.461ZM20.461 12.4999C24.6989 12.4999 28.134 15.8575 28.134 19.9999C28.134 24.1423 24.6989 27.4999 20.461 27.4999C16.223 27.4999 12.7879 24.1423 12.7879 19.9999C12.7879 15.8575 16.223 12.4999 20.461 12.4999Z" fill="#808080"/>
</svg>
