<svg width="30" height="43" viewBox="0 0 30 43" fill="none" xmlns="http://www.w3.org/2000/svg">
<path d="M17.8208 39.0312C15.8667 38.4667 16.375 29.5542 16.375 27.2542C16.375 24.9542 16.4333 18.0687 16.8667 16.8521C17.3 15.6375 29.0188 0.360416 29.0188 0.360416H0.981262C0.981262 0.360416 12.7 15.6375 13.1333 16.8542C13.5667 18.0708 13.625 24.9542 13.625 27.2562C13.625 29.5583 14.1313 38.4708 12.1771 39.0333C10.2229 39.5958 4.19168 40.7271 5.79585 41.7687C7.40001 42.8104 15 42.8833 15 42.8833C15 42.8833 22.5958 42.8062 24.2 41.7646C25.8083 40.7229 19.7729 39.5937 17.8208 39.0312V39.0312Z" fill="#EC9114"/>
</svg>
