<svg width="50" height="41" viewBox="0 0 50 41" fill="none" xmlns="http://www.w3.org/2000/svg">
<path fill-rule="evenodd" clip-rule="evenodd" d="M1.35906 0H48.641C49.0011 0.00106138 49.3461 0.142988 49.6008 0.394782C49.8554 0.646576 49.9989 0.987777 50 1.34387V32.3252C49.9989 32.6813 49.8554 33.0225 49.6008 33.2743C49.3461 33.5261 49.0011 33.668 48.641 33.6691H1.35906C1.18005 33.6686 1.0029 33.6332 0.837722 33.5649C0.672545 33.4967 0.522575 33.397 0.396375 33.2715C0.270176 33.1459 0.170218 32.997 0.102209 32.8333C0.0341994 32.6696 -0.000529057 32.4942 6.09179e-06 32.3172V1.33582C0.00321689 0.981128 0.14769 0.641984 0.402098 0.391924C0.656507 0.141864 1.00034 0.00104461 1.35906 0V0ZM18.8558 35.5159H31.1849C31.2175 37.6242 32.0964 39.5153 34.4767 41H15.5436C17.4479 39.636 18.8436 37.9783 18.8355 35.5159H18.8558ZM2.98666 1.91923H47.0215C47.3452 1.91923 47.6557 2.04641 47.8847 2.27278C48.1136 2.49914 48.2422 2.80617 48.2422 3.1263V27.3602C48.2422 27.6803 48.1136 27.9873 47.8847 28.2137C47.6557 28.4401 47.3452 28.5672 47.0215 28.5672H2.98259C2.66238 28.5619 2.35709 28.4324 2.13255 28.2066C1.908 27.9808 1.78219 27.6768 1.78223 27.3602V3.10618C1.78757 2.78955 1.91853 2.48767 2.14688 2.26563C2.37523 2.0436 2.68268 1.91919 3.00294 1.91923H2.98666Z" fill="#EC9114"/>
</svg>
