<svg width="50" height="50" viewBox="0 0 50 50" fill="none" xmlns="http://www.w3.org/2000/svg">
<path d="M50 25C50 23.1764 49.7862 21.4062 49.4155 19.6948L49.5508 19.6515L48.0053 14.8965L47.8663 14.9414C44.3114 6.8774 36.6409 1.03499 27.5 0.126427V0H22.5V0.126427C13.3599 1.03499 5.68876 6.87629 2.1351 14.9426L1.99752 14.8976L0.452368 19.6541L0.584847 19.6961C0.213844 21.4075 0 23.1776 0 25C0 32.4146 3.24635 39.054 8.37272 43.6318L8.28243 43.7549L12.3273 46.6946L12.4138 46.5759C16.1138 48.7391 20.4053 50 24.9998 50C29.5947 50 33.8867 48.7391 37.5856 46.5759L37.6732 46.6946L41.7172 43.7549L41.6274 43.6318C46.7535 39.0529 50 32.4146 50 25ZM27.5 5.17413C34.4176 6.03779 40.2269 10.433 43.0887 16.495L33.4292 19.634C32.086 17.53 29.9803 15.9687 27.5 15.3291V5.17413ZM25 19.9999C27.761 19.9999 30.0001 22.239 30.0001 25C30.0001 27.761 27.761 30.0001 25 30.0001C22.239 30.0001 20.0002 27.761 20.0002 25C20.0002 22.239 22.239 19.9999 25 19.9999ZM22.5 5.17413V15.3291C20.0203 15.9689 17.9153 17.53 16.5724 19.6327L6.91227 16.4935C9.77377 10.4328 15.5837 6.03763 22.5 5.17413ZM11.3262 39.5651C7.44155 35.9178 5.0001 30.7493 5.0001 25C5.0001 23.7165 5.1227 22.4609 5.3539 21.2451L15.031 24.3902C15.0189 24.5921 15 24.7938 15 24.9998C15 27.4169 15.8587 29.635 17.2863 31.3636L11.3262 39.5651ZM25 44.9999C21.5038 44.9999 18.2202 44.0969 15.3613 42.522L21.336 34.297C22.4711 34.7462 23.705 35.0002 25 35.0002C26.2953 35.0002 27.5295 34.7462 28.6646 34.297L34.6397 42.522C31.7798 44.0969 28.4962 44.9999 25 44.9999ZM38.6744 39.5651L32.7138 31.3637C34.1434 29.6351 35.0002 27.4171 35.0002 25C35.0002 24.794 34.9803 24.5922 34.9683 24.3884L44.6463 21.2438C44.8778 22.4609 44.9997 23.7165 44.9997 25C44.9999 30.7493 42.5599 35.9178 38.6744 39.5651Z" fill="#EC9114"/>
</svg>
